<?xml version="1.0" standalone="no"?>
<!DOCTYPE svg PUBLIC "-//W3C//DTD SVG 1.1//EN" "http://www.w3.org/Graphics/SVG/1.1/DTD/svg11.dtd" >
<svg xmlns="http://www.w3.org/2000/svg">
<metadata></metadata>
<defs>
<font id="miedingerregular" horiz-adv-x="1024" >
<font-face units-per-em="2048" ascent="1638" descent="-410" />
<missing-glyph horiz-adv-x="512" />
<glyph unicode="&#xfb01;" horiz-adv-x="1513" d="M57 768v193h199v49q0 221 100 301q98 80 377 80q78 0 185 -7v-188q-55 2 -125 2q-156 0 -211 -39t-56 -149v-49h832v-961h-271v768h-561v-768h-270v768h-199zM1087 1145v225h271v-225h-271z" />
<glyph unicode="&#xfb02;" horiz-adv-x="1513" d="M57 768v193h199v49q0 209 94 295t387 86q27 0 230 -9l391 -6v-1376h-271v1188l-63 4q-92 6 -223 6q-162 0 -217 -39q-57 -39 -58 -149v-49h394v-193h-394v-768h-270v768h-199z" />
<glyph unicode="&#xfb03;" horiz-adv-x="2363" d="M57 768v193h199v49q0 221 100 301q98 80 377 80q78 0 185 -7v-188q-55 2 -125 2q-156 0 -211 -39t-56 -149v-49h580v49q0 223 100 301q98 80 379 80q78 0 184 -7v-188q-55 2 -124 2q-158 0 -213 -39t-56 -149v-49h832v-961h-271v768h-561v-768h-270v768h-580v-768h-270 v768h-199zM1937 1141v229h271v-229h-271z" />
<glyph unicode="&#xfb04;" horiz-adv-x="2363" d="M57 768v193h199v49q0 221 100 301q98 80 377 80q78 0 185 -7v-188q-55 2 -125 2q-156 0 -211 -39t-56 -149v-49h580v49q0 215 98 297t355 82l649 -13v-1376h-271v1188l-233 10h-55q-156 0 -213 -41q-59 -41 -60 -147v-49h396v-193h-396v-768h-270v768h-580v-768h-270v768 h-199z" />
<glyph horiz-adv-x="0" />
<glyph unicode="&#xd;" horiz-adv-x="681" />
<glyph unicode=" "  horiz-adv-x="512" />
<glyph unicode="&#x09;" horiz-adv-x="512" />
<glyph unicode="&#xa0;" horiz-adv-x="512" />
<glyph unicode="!" horiz-adv-x="630" d="M152 0v315h321v-315h-321zM164 1366h305l-16 -870h-275z" />
<glyph unicode="&#x22;" horiz-adv-x="749" d="M82 1366h231l-37 -549h-159zM436 1366h232l-35 -549h-160z" />
<glyph unicode="#" horiz-adv-x="1619" d="M156 379l28 184h250l41 260h-248l27 183h248l57 360h201l-60 -360h316l57 360h203l-57 -360h243l-26 -183h-244l-41 -260h246l-29 -184h-246l-61 -379h-207l64 379h-316l-59 -379h-199l62 379h-250zM633 563h313l41 260h-313z" />
<glyph unicode="$" horiz-adv-x="1910" d="M94 377q0 41 4 80h273q-2 -16 -2 -43q0 -117 84 -152q86 -37 364 -37h51v371l-227 2q-356 6 -448 111q-78 94 -78 262q0 330 256 375q111 20 432 20h65v125h160v-125h78q420 0 549 -72q129 -70 129 -301v-24h-275q0 131 -94 159q-37 12 -125 13l-262 2v-332l250 -6 q371 -8 467 -117q74 -80 74 -272q0 -219 -105 -307q-127 -109 -616 -109h-70v-141h-160v141q-371 0 -516 33q-137 29 -196 110q-61 80 -62 234zM395 985q0 -104 60 -139q45 -25 202 -27l211 -4v328q-307 0 -356 -8q-117 -20 -117 -150zM1028 225h164q213 0 287 37 q63 35 63 150q0 135 -117 163q-41 10 -204 13l-193 4v-367z" />
<glyph unicode="%" horiz-adv-x="13027" d="M0 737v17h6152q41 0 115 -82q-43 -47 -164 -107v-131h369l385 320h6168v-9q-127 -98 -164 -98h-5881q-41 0 -271 -213q-172 -147 -237 -147h-361q-172 0 -172 188v41q0 88 49 131h-5824q-23 0 -164 90zM6136 893v74q0 123 164 123h237q164 0 164 -181v-16q0 -27 -147 -41 l-9 16v90h-254v-57q20 0 345 -287q-115 -98 -123 -98q-287 223 -369 328zM6685 369v8q88 98 131 98l205 -180v-8h-222q-37 0 -114 82z" />
<glyph unicode="&#x26;" horiz-adv-x="2660" d="M98 709q684 55 903 55q115 -100 115 -113q-211 -141 -211 -153v-156h492l522 422q324 -12 651 -55q-580 -66 -579 -127q-500 -438 -580 -439h-479q-254 0 -254 283v14q0 104 70 185v12zM946 950v84q0 183 254 183h254q242 0 242 -156v-111l-199 -45v129h-338v-57 l451 -395q0 -14 -156 -127q-502 371 -508 495zM1679 256q2 22 156 141q283 -223 283 -241v-13h-271q-66 0 -168 113z" />
<glyph unicode="'" horiz-adv-x="460" d="M115 1366h231l-37 -549h-157z" />
<glyph unicode="(" horiz-adv-x="823" d="M160 481q0 344 4 422q20 391 221 469q74 29 291 29h76v-238q-23 2 -62 2q-178 0 -213 -73q-33 -66 -33 -521q0 -569 9 -624q10 -82 57 -115t152 -33h90v-237h-76q-313 0 -406 88q-80 76 -100 231q-10 88 -10 600z" />
<glyph unicode=")" horiz-adv-x="823" d="M72 -201q33 -2 65 -2q174 0 209 74q33 68 33 526q0 569 -8 621q-10 82 -58 115q-47 33 -151 32l-90 -2v238h75q313 0 406 -88q82 -78 100 -232q10 -84 11 -600q0 -344 -5 -422q-20 -387 -221 -469q-76 -29 -291 -28h-75v237z" />
<glyph unicode="*" horiz-adv-x="1374" d="M190 1087l54 164l358 -116v313h170v-313l358 116l54 -164l-353 -114l211 -271l-137 -108l-219 276l-217 -276l-137 108l211 271z" />
<glyph unicode="+" horiz-adv-x="1818" d="M266 604v197h543v506h197v-506h546v-197h-546v-510h-197v510h-543z" />
<glyph unicode="," horiz-adv-x="628" d="M109 -135l32 -2q113 0 113 110q0 16 -2 27h-102v319h329v-309q0 -221 -106 -282q-66 -37 -219 -37q-27 0 -45 2v172z" />
<glyph unicode="-" horiz-adv-x="698" d="M0 379v264h698v-264h-698z" />
<glyph unicode="." horiz-adv-x="659" d="M166 0v319h328v-319h-328z" />
<glyph unicode="/" horiz-adv-x="1536" d="M-274 -410l1497 1780h247l-1490 -1780h-254z" />
<glyph unicode="0" horiz-adv-x="2002" d="M113 541v282q0 461 231 510q105 31 209 31h893q442 0 442 -432v-481q0 -354 -231 -420q-88 -31 -201 -31h-932q-391 41 -391 291q-18 0 -20 250zM444 432q0 -172 240 -172h633q250 0 250 211v381q0 252 -240 252h-543q-340 0 -340 -162v-510z" />
<glyph unicode="1" horiz-adv-x="972" d="M98 860v223q0 16 193 60q143 55 303 213h233q20 -4 21 -21v-1315q0 -20 -21 -20h-284q-20 0 -21 20v941q-176 -121 -403 -121q-20 0 -21 20z" />
<glyph unicode="2" horiz-adv-x="1910" d="M104 29v80q0 475 840 628q598 84 598 193v18q0 154 -325 154h-445q-303 0 -303 -172l-20 -10h-283q-20 0 -21 20q0 147 152 313q123 111 385 111h565q457 0 588 -283q20 -45 31 -151q0 -301 -619 -385q-719 -88 -719 -264v-11h1338q18 -2 18 -18v-223q0 -20 -18 -21 h-1741q-20 0 -21 21z" />
<glyph unicode="3" horiz-adv-x="1949" d="M106 440l21 11h281l69 -119q80 -72 191 -72h733q150 16 149 141v31q0 113 -170 139h-632q-18 0 -19 21v201q2 20 19 20h581q190 0 191 150q0 141 -150 141h-651q-223 0 -270 -172q0 -8 -11 -8h-291q-20 0 -20 18q0 168 190 342q142 80 351 80h743q420 0 420 -360 q0 -158 -180 -291q211 -68 211 -312v-30q0 -229 -301 -351q-100 -20 -181 -20h-751q-375 0 -492 291q-31 115 -31 149z" />
<glyph unicode="4" horiz-adv-x="1927" d="M100 358v226q1123 780 1172 780h287q20 -4 20 -21v-749h215q20 -4 21 -21v-215q0 -20 -21 -20h-215v-330q0 -20 -20 -20h-287q-20 0 -21 20v330h-1130q-20 0 -21 20zM512 594h739v493h-10q-727 -481 -729 -493z" />
<glyph unicode="5" horiz-adv-x="1923" d="M102 379v51q4 20 21 21h270q12 0 62 -121q80 -61 211 -62h612q221 0 221 172v49q0 172 -301 173h-573q-150 0 -222 -111h-280l-21 10q90 711 111 803h1536q20 -4 20 -21v-221q0 -18 -20 -18h-1266q-18 0 -49 -273q66 61 131 62h842q307 0 414 -272l8 -121v-90 q0 -289 -260 -371q-61 -31 -191 -31h-823q-348 0 -432 252q-20 70 -21 119z" />
<glyph unicode="6" horiz-adv-x="1974" d="M121 381v618q0 319 405 365h822q422 0 495 -313l21 -103l-21 -10h-272q-12 0 -82 123q-72 39 -182 39h-660q-193 0 -192 -131v-152h10q57 51 123 51h880q309 0 406 -264q20 -76 20 -141v-62q0 -406 -456 -405h-860q-457 0 -457 385zM455 453q0 -193 213 -193h659 q233 0 234 193q0 182 -244 182h-639q-223 0 -223 -172v-10z" />
<glyph unicode="7" horiz-adv-x="1728" d="M113 1122v226q4 20 20 20h1444q20 -4 20 -20v-113l11 -123q-567 -344 -830 -1024q-8 -92 -30 -92h-318l-20 10q39 334 501 860q41 55 267 236h-1045q-20 0 -20 20z" />
<glyph unicode="8" horiz-adv-x="1935" d="M100 385v21q0 236 199 305q-170 145 -170 278v39q0 217 219 307q72 29 197 29h831q414 0 414 -356q0 -166 -178 -297q152 0 209 -285v-41q0 -244 -277 -356q-72 -29 -198 -29h-771q-330 0 -436 227q-39 72 -39 158zM397 416q0 -168 267 -168h583q266 0 266 137v49 q0 139 -196 139h-742q-147 1 -178 -157zM436 938q0 -127 189 -127h692q150 0 168 147v11q0 147 -189 147h-671q-189 0 -189 -137v-41z" />
<glyph unicode="9" horiz-adv-x="1982" d="M102 848v72q0 371 334 434q54 10 101 10h868q455 0 455 -393v-578q0 -393 -455 -393h-776q-414 0 -496 303q0 14 -20 111l20 10h273q14 0 61 -100q57 -61 190 -62h678q193 0 193 152v141q-61 -59 -133 -59h-879q-354 0 -414 352zM436 909q0 -182 232 -182h647 q213 0 213 193q0 182 -223 182h-648q-221 0 -221 -193z" />
<glyph unicode=":" horiz-adv-x="659" d="M166 0v319h328v-319h-328zM166 641v320h328v-320h-328z" />
<glyph unicode=";" horiz-adv-x="628" d="M109 -135l32 -2q113 0 113 110q0 16 -2 27h-102v319h329v-309q0 -221 -106 -282q-66 -37 -219 -37q-27 0 -45 2v172zM152 641v320h327v-320h-327z" />
<glyph unicode="&#x3c;" d="M68 606v174l886 434v-204l-667 -318l667 -317v-203z" />
<glyph unicode="=" horiz-adv-x="1818" d="M274 436v195h1268v-195h-1268zM274 770v195h1268v-195h-1268z" />
<glyph unicode="&#x3e;" horiz-adv-x="1581" d="M348 172v205l668 315l-668 318v204l887 -434v-176z" />
<glyph unicode="?" horiz-adv-x="1583" d="M94 905v35q0 254 96 340q102 94 578 94q483 0 596 -121q72 -78 72 -276q0 -225 -109 -305q-88 -57 -342 -90q-102 -14 -133 -37t-31 -86h-270v18q0 176 72 236q74 61 317 90q127 16 176 55q51 41 51 127q0 106 -65 143q-70 39 -328 39q-274 0 -342 -37q-66 -35 -65 -184 v-41h-273zM524 0v297h322v-297h-322z" />
<glyph unicode="@" horiz-adv-x="2125" d="M113 655q0 530 84 619q86 88 317 106q119 10 647 11q633 0 746 -101q66 -57 88 -170q20 -115 20 -409q0 -293 -57 -367q-59 -74 -293 -74q-225 0 -270 47q-39 43 -45 115q-31 -88 -117 -125q-86 -35 -268 -35q-248 0 -334 62q-84 63 -84 246q0 262 86 354 q104 104 416 104q164 0 235 -26q72 -27 105 -103l8 121h188l-43 -506q-4 -35 31 -71q27 -27 96 -27q100 0 125 61q23 61 23 326q0 328 -86 369q-98 49 -609 49q-514 0 -622 -12q-106 -12 -142 -74q-29 -55 -36 -219q-10 -184 -11 -305q0 -317 27 -398q33 -104 205 -131 q100 -16 637 -16q389 0 497 20q109 20 129 99l189 -27q-37 -199 -240 -231q-111 -18 -921 -19q-350 0 -476 29q-125 29 -180 123q-66 111 -65 585zM745 596q0 -102 37 -137q51 -41 205 -41q262 0 324 69q61 68 61 232q0 115 -53 147q-55 35 -236 35q-223 0 -276 -63 q-61 -70 -62 -242z" />
<glyph unicode="A" horiz-adv-x="2351" d="M98 -4v20q809 1260 879 1348h407q8 0 879 -1348v-20h-358l-183 256h-1093l-185 -256h-346zM782 496h787v10q-379 592 -389 592h-11q-61 -113 -387 -602z" />
<glyph unicode="B" horiz-adv-x="2170" d="M94 16v1327q5 21 21 21h1542q287 0 387 -236l20 -120q0 -168 -184 -318q160 0 225 -256v-72q0 -366 -436 -366h-2h-1552q-20 0 -21 20zM422 262h1173q164 20 164 141q0 143 -184 144h-1153v-285zM422 813h1153q113 0 133 154q0 131 -246 131h-1022q-18 -3 -18 -21v-264z " />
<glyph unicode="C" horiz-adv-x="2244" d="M98 682q0 524 525 661q106 21 227 21h612q504 0 672 -426q10 -18 10 -29l-20 -10h-295q-156 209 -406 209h-534q-369 0 -455 -297q-10 -53 -10 -100v-78q0 -262 287 -357q76 -20 139 -20h592q252 0 387 219h305l20 -10q-90 -262 -276 -367q-170 -98 -436 -98h-602 q-510 0 -682 367q-49 143 -60 315z" />
<glyph unicode="D" horiz-adv-x="2304" d="M102 20v1323q5 21 21 21h1364q487 0 672 -377q61 -158 61 -305q0 -504 -479 -651q-117 -31 -244 -31h-1374q-20 0 -21 20zM428 254h805q524 0 600 195q61 102 61 243q0 279 -274 377q-74 31 -205 31h-987v-846z" />
<glyph unicode="E" horiz-adv-x="2121" d="M100 20v1328q5 20 21 20h1868q20 -4 20 -20v-226q0 -20 -20 -20h-1561v-285h1438q20 -4 20 -20v-226q0 -20 -20 -20h-1438v-285h1561q20 -4 20 -20v-226q0 -20 -20 -20h-1868q-20 0 -21 20z" />
<glyph unicode="F" horiz-adv-x="2021" d="M96 20v1328q5 20 21 20h1765q20 -4 21 -20v-226q0 -20 -21 -20h-1458v-346h1337q20 -4 21 -21v-215q0 -20 -21 -20h-1319q-18 -2 -18 -21v-459q0 -20 -21 -20h-286q-20 0 -21 20z" />
<glyph unicode="G" horiz-adv-x="2248" d="M98 662v10q0 477 416 643q151 49 305 49h615q539 0 700 -416v-28h-326q-137 188 -415 188h-533q-328 0 -436 -307q0 -6 -10 -129q0 -297 278 -396q92 -20 148 -20h651q256 0 338 219q8 18 8 29h-750q-20 0 -20 20v187q2 20 20 20h1057q20 -2 21 -20v-672q0 -18 -21 -19 h-188q-18 0 -68 179h-10q-74 -199 -387 -199h-682q-549 0 -690 475q-20 119 -21 187z" />
<glyph unicode="H" horiz-adv-x="2340" d="M106 16v1327q5 21 21 21h287q20 -4 20 -21v-520h1469v520q4 20 20 21h297q20 -4 21 -21v-1327q0 -20 -21 -20h-297q-20 0 -20 20v531h-1469v-531q0 -20 -20 -20h-287q-20 0 -21 20z" />
<glyph unicode="I" horiz-adv-x="546" d="M109 16v1327q4 21 20 21h287q20 -4 20 -21v-1327q0 -20 -20 -20h-287q-20 0 -20 20z" />
<glyph unicode="J" horiz-adv-x="1990" d="M115 584l20 10h281q16 0 82 -172q125 -160 381 -160h272q453 0 453 463v623q2 20 20 20h281q20 -4 20 -20v-664q0 -563 -532 -664q-53 -20 -211 -20h-363q-514 0 -674 412q-31 135 -30 172z" />
<glyph unicode="K" horiz-adv-x="1943" d="M102 20v1323q5 21 21 21h274q20 -4 21 -21v-469h10q786 471 856 490h488v-21l-1029 -589v-21q63 -25 1121 -723v-10h-500q-35 0 -926 590l-20 10v-580q0 -20 -21 -20h-274q-20 0 -21 20z" />
<glyph unicode="L" horiz-adv-x="2017" d="M98 20v1323q5 21 21 21h295q20 -4 20 -21v-1079h1477q20 -2 20 -20v-224q0 -20 -20 -20h-1792q-20 0 -21 20z" />
<glyph unicode="M" horiz-adv-x="2570" d="M106 20v1323q5 21 21 21h428l743 -997q674 950 721 997h439q20 -4 20 -21v-1323q0 -20 -20 -20h-285q-20 0 -21 20v998q-729 -1016 -743 -1018h-223q-154 184 -744 1018h-10v-998q0 -20 -20 -20h-285q-20 0 -21 20z" />
<glyph unicode="N" horiz-adv-x="2197" d="M102 16v1327q5 21 21 21h377l1257 -991h10v970q2 20 21 21h285q20 -4 20 -21v-1327q0 -20 -20 -20h-347l-1296 1022v-1002q0 -20 -20 -20h-287q-20 0 -21 20z" />
<glyph unicode="O" horiz-adv-x="2355" d="M119 662v20q0 461 395 623q146 59 326 59h712q492 0 672 -395q49 -137 49 -267v-49q0 -504 -524 -633q-78 -20 -186 -20h-734q-498 0 -671 406q-39 156 -39 256zM434 662q0 -285 287 -386q76 -20 139 -20h672q328 0 416 317q10 37 10 89v30q0 274 -258 385 q-106 31 -207 31h-594q-465 0 -465 -446z" />
<glyph unicode="P" horiz-adv-x="2142" d="M104 16v1327q5 21 21 21h1348q582 0 581 -510q0 -512 -674 -512h-948v-326q0 -20 -20 -20h-287q-20 0 -21 20zM432 629q2 -20 19 -21h806q461 0 461 174q10 55 11 82q0 233 -328 234h-969v-469z" />
<glyph unicode="Q" horiz-adv-x="2396" d="M98 647v39q0 461 394 629q153 53 315 53h747q569 0 709 -539v-208q0 -295 -223 -474h-27q-33 0 -209 197q143 104 144 354q0 258 -236 369q-86 39 -184 39h-694q-270 0 -381 -236q-27 -74 -39 -184q0 -432 524 -432h381q340 0 444 65l604 -630v-13h-12l-577 340 q-154 -12 -224 -12h-800q-457 0 -629 447q-27 123 -27 196z" />
<glyph unicode="R" horiz-adv-x="2207" d="M109 16v1327q4 21 20 21h1399q371 0 489 -195q31 -113 31 -192q0 -233 -215 -318q236 -123 235 -325q0 -225 62 -318v-20h-307q-47 0 -90 346q-84 143 -205 143h-1082v-469q0 -20 -20 -20h-297q-20 0 -20 20zM446 741h979q297 0 297 164v41q0 152 -348 152h-928v-357z " />
<glyph unicode="S" horiz-adv-x="2252" d="M113 420l20 10h297q90 -174 236 -174h882q266 0 267 123v41q0 123 -287 123h-697q-469 0 -606 166q-72 104 -71 235v10q0 410 573 410h852q420 0 522 -328l10 -102v-10h-307q-108 153 -152 153h-1q-78 20 -144 21h-676q-350 0 -350 -144q0 -143 267 -143h688 q592 0 675 -227q41 -68 41 -195q0 -399 -542 -399h-975q-367 0 -481 256q-41 123 -41 174z" />
<glyph unicode="T" horiz-adv-x="2177" d="M102 1120v226q5 20 21 20h1933q20 -2 21 -20v-226q0 -20 -21 -20h-799v-1084q0 -20 -20 -20h-297q-20 0 -20 20v1084h-797q-20 0 -21 20z" />
<glyph unicode="U" horiz-adv-x="2312" d="M102 672v671q5 21 21 21h280q20 -2 21 -21v-671q0 -301 260 -381q47 -31 162 -31h592q430 0 430 473v610q4 20 20 21h281q20 -2 20 -21v-620q0 -723 -743 -723h-631q-528 0 -682 432q-31 127 -31 240z" />
<glyph unicode="V" horiz-adv-x="2340" d="M113 1354l20 10h326q39 -27 694 -1102h21q571 969 673 1102h359v-10q-768 -1268 -848 -1358h-397q-31 16 -633 1012q-10 6 -215 346z" />
<glyph unicode="W" horiz-adv-x="2897" d="M102 1354l21 10h315q47 -35 459 -1028q27 12 356 946q31 82 50 82h307q27 0 385 -1028h20q408 991 459 1028h315l21 -10q-580 -1315 -610 -1354h-367q-27 23 -356 885q-10 61 -31 61q-328 -903 -367 -946h-366q-23 18 -611 1354z" />
<glyph unicode="X" horiz-adv-x="2201" d="M104 0v10l764 672q-748 645 -764 672v10h428l570 -490q78 80 559 490h428v-10l-764 -682q397 -326 764 -662v-10h-428l-569 479h-11q-74 -84 -549 -479h-428z" />
<glyph unicode="Y" horiz-adv-x="2252" d="M102 1354v10h408l620 -631l611 631h407v-10l-854 -905v-429q0 -20 -20 -20h-287q-20 0 -20 20v418z" />
<glyph unicode="Z" horiz-adv-x="2164" d="M104 20v203l1303 877h-1231q-20 0 -20 20v223q2 21 20 21h1831q20 -4 21 -21v-192l-1323 -887h1343q20 -2 20 -20v-224q0 -20 -20 -20h-1923q-20 0 -21 20z" />
<glyph unicode="[" horiz-adv-x="774" d="M172 -430v1816h563v-212h-295v-1389h295v-215h-563z" />
<glyph unicode="\" horiz-adv-x="1536" d="M66 1370h249l1495 -1780h-251z" />
<glyph unicode="]" horiz-adv-x="774" d="M39 -217h295v1388h-295v215h563v-1816h-563v213z" />
<glyph unicode="^" d="M31 717l346 655h270l346 -655h-219l-262 491l-264 -491h-217z" />
<glyph unicode="_" d="M0 -115h1024v-186h-1024v186z" />
<glyph unicode="`" d="M201 1243l67 184l437 -215l-39 -114z" />
<glyph unicode="a" horiz-adv-x="2351" d="M98 -4v20q809 1260 879 1348h407q8 0 879 -1348v-20h-358l-183 256h-1093l-185 -256h-346zM782 496h787v10q-379 592 -389 592h-11q-61 -113 -387 -602z" />
<glyph unicode="b" horiz-adv-x="2170" d="M94 16v1327q5 21 21 21h1542q287 0 387 -236l20 -120q0 -168 -184 -318q160 0 225 -256v-72q0 -366 -436 -366h-2h-1552q-20 0 -21 20zM422 262h1173q164 20 164 141q0 143 -184 144h-1153v-285zM422 813h1153q113 0 133 154q0 131 -246 131h-1022q-18 -3 -18 -21v-264z " />
<glyph unicode="c" horiz-adv-x="2244" d="M98 682q0 524 525 661q106 21 227 21h612q504 0 672 -426q10 -18 10 -29l-20 -10h-295q-156 209 -406 209h-534q-369 0 -455 -297q-10 -53 -10 -100v-78q0 -262 287 -357q76 -20 139 -20h592q252 0 387 219h305l20 -10q-90 -262 -276 -367q-170 -98 -436 -98h-602 q-510 0 -682 367q-49 143 -60 315z" />
<glyph unicode="d" horiz-adv-x="2304" d="M102 20v1323q5 21 21 21h1364q487 0 672 -377q61 -158 61 -305q0 -504 -479 -651q-117 -31 -244 -31h-1374q-20 0 -21 20zM428 254h805q524 0 600 195q61 102 61 243q0 279 -274 377q-74 31 -205 31h-987v-846z" />
<glyph unicode="e" horiz-adv-x="2121" d="M100 20v1328q5 20 21 20h1868q20 -4 20 -20v-226q0 -20 -20 -20h-1561v-285h1438q20 -4 20 -20v-226q0 -20 -20 -20h-1438v-285h1561q20 -4 20 -20v-226q0 -20 -20 -20h-1868q-20 0 -21 20z" />
<glyph unicode="f" horiz-adv-x="2021" d="M96 20v1328q5 20 21 20h1765q20 -4 21 -20v-226q0 -20 -21 -20h-1458v-346h1337q20 -4 21 -21v-215q0 -20 -21 -20h-1319q-18 -2 -18 -21v-459q0 -20 -21 -20h-286q-20 0 -21 20z" />
<glyph unicode="g" horiz-adv-x="2248" d="M98 662v10q0 477 416 643q151 49 305 49h615q539 0 700 -416v-28h-326q-137 188 -415 188h-533q-328 0 -436 -307q0 -6 -10 -129q0 -297 278 -396q92 -20 148 -20h651q256 0 338 219q8 18 8 29h-750q-20 0 -20 20v187q2 20 20 20h1057q20 -2 21 -20v-672q0 -18 -21 -19 h-188q-18 0 -68 179h-10q-74 -199 -387 -199h-682q-549 0 -690 475q-20 119 -21 187z" />
<glyph unicode="h" horiz-adv-x="2340" d="M106 16v1327q5 21 21 21h287q20 -4 20 -21v-520h1469v520q4 20 20 21h297q20 -4 21 -21v-1327q0 -20 -21 -20h-297q-20 0 -20 20v531h-1469v-531q0 -20 -20 -20h-287q-20 0 -21 20z" />
<glyph unicode="i" horiz-adv-x="546" d="M109 16v1327q4 21 20 21h287q20 -4 20 -21v-1327q0 -20 -20 -20h-287q-20 0 -20 20z" />
<glyph unicode="j" horiz-adv-x="1990" d="M115 584l20 10h281q16 0 82 -172q125 -160 381 -160h272q453 0 453 463v623q2 20 20 20h281q20 -4 20 -20v-664q0 -563 -532 -664q-53 -20 -211 -20h-363q-514 0 -674 412q-31 135 -30 172z" />
<glyph unicode="k" horiz-adv-x="1943" d="M102 20v1323q5 21 21 21h274q20 -4 21 -21v-469h10q786 471 856 490h488v-21l-1029 -589v-21q63 -25 1121 -723v-10h-500q-35 0 -926 590l-20 10v-580q0 -20 -21 -20h-274q-20 0 -21 20z" />
<glyph unicode="l" horiz-adv-x="2017" d="M98 20v1323q5 21 21 21h295q20 -4 20 -21v-1079h1477q20 -2 20 -20v-224q0 -20 -20 -20h-1792q-20 0 -21 20z" />
<glyph unicode="m" horiz-adv-x="2570" d="M106 20v1323q5 21 21 21h428l743 -997q674 950 721 997h439q20 -4 20 -21v-1323q0 -20 -20 -20h-285q-20 0 -21 20v998q-729 -1016 -743 -1018h-223q-154 184 -744 1018h-10v-998q0 -20 -20 -20h-285q-20 0 -21 20z" />
<glyph unicode="n" horiz-adv-x="2197" d="M102 16v1327q5 21 21 21h377l1257 -991h10v970q2 20 21 21h285q20 -4 20 -21v-1327q0 -20 -20 -20h-347l-1296 1022v-1002q0 -20 -20 -20h-287q-20 0 -21 20z" />
<glyph unicode="o" horiz-adv-x="2355" d="M119 662v20q0 461 395 623q146 59 326 59h712q492 0 672 -395q49 -137 49 -267v-49q0 -504 -524 -633q-78 -20 -186 -20h-734q-498 0 -671 406q-39 156 -39 256zM434 662q0 -285 287 -386q76 -20 139 -20h672q328 0 416 317q10 37 10 89v30q0 274 -258 385 q-106 31 -207 31h-594q-465 0 -465 -446z" />
<glyph unicode="p" horiz-adv-x="2142" d="M104 16v1327q5 21 21 21h1348q582 0 581 -510q0 -512 -674 -512h-948v-326q0 -20 -20 -20h-287q-20 0 -21 20zM432 629q2 -20 19 -21h806q461 0 461 174q10 55 11 82q0 233 -328 234h-969v-469z" />
<glyph unicode="q" horiz-adv-x="2396" d="M98 647v39q0 461 394 629q153 53 315 53h747q569 0 709 -539v-208q0 -295 -223 -474h-27q-33 0 -209 197q143 104 144 354q0 258 -236 369q-86 39 -184 39h-694q-270 0 -381 -236q-27 -74 -39 -184q0 -432 524 -432h381q340 0 444 65l604 -630v-13h-12l-577 340 q-154 -12 -224 -12h-800q-457 0 -629 447q-27 123 -27 196z" />
<glyph unicode="r" horiz-adv-x="2207" d="M109 16v1327q4 21 20 21h1399q371 0 489 -195q31 -113 31 -192q0 -233 -215 -318q236 -123 235 -325q0 -225 62 -318v-20h-307q-47 0 -90 346q-84 143 -205 143h-1082v-469q0 -20 -20 -20h-297q-20 0 -20 20zM446 741h979q297 0 297 164v41q0 152 -348 152h-928v-357z " />
<glyph unicode="s" horiz-adv-x="2252" d="M113 420l20 10h297q90 -174 236 -174h882q266 0 267 123v41q0 123 -287 123h-697q-469 0 -606 166q-72 104 -71 235v10q0 410 573 410h852q420 0 522 -328l10 -102v-10h-307q-108 153 -152 153h-1q-78 20 -144 21h-676q-350 0 -350 -144q0 -143 267 -143h688 q592 0 675 -227q41 -68 41 -195q0 -399 -542 -399h-975q-367 0 -481 256q-41 123 -41 174z" />
<glyph unicode="t" horiz-adv-x="2177" d="M102 1120v226q5 20 21 20h1933q20 -2 21 -20v-226q0 -20 -21 -20h-799v-1084q0 -20 -20 -20h-297q-20 0 -20 20v1084h-797q-20 0 -21 20z" />
<glyph unicode="u" horiz-adv-x="2312" d="M102 672v671q5 21 21 21h280q20 -2 21 -21v-671q0 -301 260 -381q47 -31 162 -31h592q430 0 430 473v610q4 20 20 21h281q20 -2 20 -21v-620q0 -723 -743 -723h-631q-528 0 -682 432q-31 127 -31 240z" />
<glyph unicode="v" horiz-adv-x="2340" d="M113 1354l20 10h326q39 -27 694 -1102h21q571 969 673 1102h359v-10q-768 -1268 -848 -1358h-397q-31 16 -633 1012q-10 6 -215 346z" />
<glyph unicode="w" horiz-adv-x="2897" d="M102 1354l21 10h315q47 -35 459 -1028q27 12 356 946q31 82 50 82h307q27 0 385 -1028h20q408 991 459 1028h315l21 -10q-580 -1315 -610 -1354h-367q-27 23 -356 885q-10 61 -31 61q-328 -903 -367 -946h-366q-23 18 -611 1354z" />
<glyph unicode="x" horiz-adv-x="2201" d="M104 0v10l764 672q-748 645 -764 672v10h428l570 -490q78 80 559 490h428v-10l-764 -682q397 -326 764 -662v-10h-428l-569 479h-11q-74 -84 -549 -479h-428z" />
<glyph unicode="y" horiz-adv-x="2252" d="M102 1354v10h408l620 -631l611 631h407v-10l-854 -905v-429q0 -20 -20 -20h-287q-20 0 -20 20v418z" />
<glyph unicode="z" horiz-adv-x="2164" d="M104 20v203l1303 877h-1231q-20 0 -20 20v223q2 21 20 21h1831q20 -4 21 -21v-192l-1323 -887h1343q20 -2 20 -20v-224q0 -20 -20 -20h-1923q-20 0 -21 20z" />
<glyph unicode="{" horiz-adv-x="819" d="M102 377v215q113 25 113 172v223q0 240 76 324q76 82 297 82q88 0 153 -2v-220h-45q-102 0 -145 -22q-43 -25 -55 -70t-13 -174v-176q0 -174 -121 -250q121 -78 121 -252v-182q0 -145 27 -195q35 -66 182 -65h49v-217q-82 -4 -151 -4q-225 0 -299 82q-76 82 -76 329v226 q0 152 -113 176z" />
<glyph unicode="|" d="M365 -342v1708h292v-1708h-292z" />
<glyph unicode="}" horiz-adv-x="819" d="M78 -215h45q145 0 184 65q25 43 27 195v182q0 176 121 252q-121 76 -121 250v176q0 176 -35 213q-49 53 -160 53h-61v220q61 2 143 2q227 0 305 -82q76 -82 76 -324v-223q0 -147 115 -172v-215q-115 -25 -115 -176v-226q0 -244 -74 -325q-76 -84 -292 -84q-66 0 -158 2 v217z" />
<glyph unicode="~" horiz-adv-x="1366" d="M188 1247q78 170 158 217q78 43 141 43q82 0 218 -61q127 -57 188 -57q92 0 166 122l121 -71q-63 -123 -117 -174q-84 -76 -189 -76q-86 0 -194 51q-152 68 -217 68q-84 0 -158 -138z" />
<glyph unicode="&#xa1;" horiz-adv-x="630" d="M152 645v316h321v-316h-321zM156 -403l16 868h274l15 -868h-305z" />
<glyph unicode="&#xa2;" horiz-adv-x="1910" d="M311 719q0 332 160 426q106 66 410 74v155h163v-155q315 -10 424 -84t117 -289h-278q-2 90 -60 127q-57 35 -203 39v-582l15 2q143 2 198 39q53 37 62 135h278q-10 -219 -120 -297q-113 -78 -433 -86v-176h-163v176q-305 12 -408 74q-162 92 -162 422zM588 723 q0 -233 131 -277q51 -14 162 -16v582q-121 -2 -179 -23q-115 -47 -114 -266z" />
<glyph unicode="&#xa3;" horiz-adv-x="1910" d="M92 524v193h223v96q0 352 115 455q119 104 617 104q553 0 659 -117q78 -86 78 -280q0 -33 -2 -57h-297q2 8 2 24q0 131 -68 164q-72 33 -372 33q-250 0 -332 -35q-84 -33 -99 -139q-4 -33 -4 -248h615v-193h-609v-59q0 -100 -32 -148q-33 -45 -135 -84h1368v-233h-1663 v233q90 -4 133 72q29 49 28 170v49h-225z" />
<glyph unicode="&#xa4;" horiz-adv-x="1472" d="M129 1169l113 115l202 -203q143 96 293 97q147 0 287 -97l203 201l112 -113l-202 -200q100 -143 100 -289q0 -145 -96 -285l202 -200l-112 -115l-203 203q-137 -98 -291 -99q-143 0 -291 97l-202 -201l-111 113l199 202q-96 133 -96 287q0 145 98 285zM424 684 q0 -131 92 -223q90 -92 219 -92q131 0 221 92q92 90 93 219q0 129 -91 221q-90 92 -217 92q-133 0 -225 -90t-92 -219z" />
<glyph unicode="&#xa5;" horiz-adv-x="1910" d="M90 1366h371l495 -604l496 604h369l-365 -446h250v-191h-403l-156 -188h547v-191h-588v-350h-297v350h-592v191h551l-156 188h-407v191h252z" />
<glyph unicode="&#xa6;" d="M365 313h292v-655h-292v655zM365 649v717h292v-717h-292z" />
<glyph unicode="&#xa7;" horiz-adv-x="1910" d="M207 483q0 197 164 267q-127 59 -127 247q0 223 110 306q104 76 568 75q356 0 464 -16q109 -18 168 -86q70 -76 76 -297h-282v29q0 115 -93 143q-61 16 -311 16q-274 0 -342 -24q-68 -27 -67 -131q0 -84 38 -111q37 -25 185 -39l581 -57q205 -20 279 -88q74 -66 74 -225 q0 -229 -156 -295q72 -31 98 -86q27 -55 27 -177q0 -205 -88 -284q-49 -43 -115 -60q-150 -39 -608 -39q-438 0 -545 93q-68 57 -76 168q-4 53 -4 151h287q0 -100 16 -133q33 -66 408 -66q309 0 383 33q55 25 55 135q0 80 -37 109q-35 29 -153 43l-664 74q-145 16 -207 59 q-106 70 -106 266zM485 489q0 -84 45 -112q47 -31 199 -45l541 -60q92 35 121 70t28 115q0 92 -49 125q-33 23 -168 36l-559 60q-94 -27 -125 -64q-33 -39 -33 -125z" />
<glyph unicode="&#xa8;" d="M143 1139v180h283v-180h-283zM598 1139v180h283v-180h-283z" />
<glyph unicode="&#xa9;" horiz-adv-x="1904" d="M137 651q0 301 45 445q45 145 158 209q164 92 612 92q514 0 666 -131q150 -133 149 -584q0 -455 -151 -586q-152 -127 -641 -127q-422 0 -586 72q-104 43 -156 115q-96 133 -96 495zM283 721q0 -258 34 -377q33 -117 121 -164q152 -80 531 -80q381 0 501 76 q88 55 121 170q31 113 31 381q0 344 -125 442q-123 96 -563 97q-365 0 -494 -74q-72 -43 -96 -94q-61 -125 -61 -377zM444 702q0 279 111 340q90 47 414 48q315 0 395 -48q78 -47 86 -235h-193q0 86 -43 106q-43 18 -237 19h-21q-227 0 -270 -29q-43 -31 -43 -184 q0 -209 39 -244q37 -37 258 -37q227 0 277 19q49 18 49 104v21h194v-17q0 -172 -57 -221q-68 -63 -387 -63q-377 0 -461 45q-66 35 -88 112q-23 78 -23 264z" />
<glyph unicode="&#xaa;" horiz-adv-x="985" d="M78 723q0 119 74 156t317 36q160 0 219 -53v33q0 86 -35 102q-37 18 -168 19q-127 0 -157 -10q-33 -12 -35 -58h-191q4 113 78 152q76 39 287 39q307 0 371 -70q43 -51 43 -164v-358h-189v61q-37 -45 -88 -59q-53 -12 -201 -12q-197 0 -260 36q-66 37 -65 150zM266 731 q0 -45 39 -59q37 -12 174 -13q127 0 170 15q41 14 41 59q0 41 -41 55q-43 12 -182 13q-123 -1 -162 -13q-39 -14 -39 -57z" />
<glyph unicode="&#xab;" horiz-adv-x="1206" d="M82 504l299 512l194 -117l-231 -397l231 -391l-194 -113zM592 504l299 512l194 -117l-231 -397l231 -391l-194 -113z" />
<glyph unicode="&#xac;" horiz-adv-x="1581" d="M346 354v193h887v-547h-207v354h-680z" />
<glyph unicode="&#xad;" horiz-adv-x="698" d="M0 379v264h698v-264h-698z" />
<glyph unicode="&#xae;" horiz-adv-x="1904" d="M143 651q0 301 45 445q45 145 158 209q164 92 612 92q514 0 666 -131q150 -133 150 -584q0 -455 -152 -586q-152 -127 -641 -127q-422 0 -586 72q-104 43 -155 115q-96 133 -97 495zM289 721q0 -258 35 -377q33 -117 120 -164q152 -80 531 -80q381 0 502 76 q88 55 120 170q31 113 31 381q0 344 -125 442q-123 96 -563 97q-365 0 -494 -74q-72 -43 -96 -94q-61 -125 -61 -377zM465 289v794h690q174 0 240 -55q68 -57 67 -205q0 -174 -151 -207q139 -16 139 -163v-164h-201v127q0 76 -26 98q-27 23 -117 23h-442v-248h-199zM664 692 h436q96 0 129 23q33 25 33 94q0 72 -31 94q-31 23 -127 23h-440v-234z" />
<glyph unicode="&#xaf;" d="M133 1147v164h760v-164h-760z" />
<glyph unicode="&#xb0;" horiz-adv-x="821" d="M106 1075q0 123 91 211q90 86 219 86q123 0 211 -88q88 -90 88 -211q0 -127 -88 -215q-90 -88 -217 -88t-215 88q-88 90 -89 217zM242 1073q0 -70 49 -121q51 -49 121 -49t118 49q49 49 50 119q0 70 -50 119q-49 49 -116 49q-72 0 -123 -49q-49 -47 -49 -117z" />
<glyph unicode="&#xb1;" horiz-adv-x="1818" d="M268 0v197h1284v-197h-1284zM268 721v197h543v448h197v-448h544v-197h-544v-453h-197v453h-543z" />
<glyph unicode="&#xb2;" horiz-adv-x="1204" d="M119 547v168q-2 141 59 196q63 55 232 64l315 22q111 8 139 27q29 20 29 84q0 78 -43 96q-45 18 -240 19q-209 0 -250 -25q-43 -25 -43 -143h-194v59q0 135 63 191q78 66 441 65q348 0 415 -74q49 -55 50 -186q0 -147 -58 -199q-59 -53 -243 -65l-312 -21 q-102 -6 -135 -26q-31 -23 -31 -88v-19h779v-145h-973z" />
<glyph unicode="&#xb3;" horiz-adv-x="1204" d="M104 778v53h195v-14q0 -92 43 -110q41 -18 248 -19q215 0 260 14q43 14 43 84q0 66 -27 86q-29 18 -123 19h-256v139h248q80 0 113 23q31 20 31 75q0 61 -43 80q-45 16 -197 17q-221 0 -268 -13q-33 -10 -54 -41q-20 -33 -10 -57l2 -2v-22h-198q4 170 61 217 q76 66 438 65q303 0 387 -47q82 -43 82 -190q0 -141 -127 -172q82 -14 113 -54q29 -39 29 -129q0 -152 -88 -198q-78 -39 -367 -39q-281 0 -373 12q-162 25 -162 223z" />
<glyph unicode="&#xb4;" d="M319 1212l437 215l67 -184l-465 -145z" />
<glyph unicode="&#xb5;" horiz-adv-x="1556" d="M156 -418v1379h270v-480q0 -152 59 -213q86 -80 293 -80q219 0 299 86q53 61 53 207v480h271v-961h-271v195q-20 -76 -55 -117q-80 -96 -297 -96q-213 0 -297 96q-37 45 -55 117v-613h-270z" />
<glyph unicode="&#xb6;" horiz-adv-x="1708" d="M119 922q0 256 104 352q100 92 424 92h916v-164h-117v-1546h-266v1501h-217v-1501h-267v809q-373 0 -465 82q-113 98 -112 375z" />
<glyph unicode="&#xb7;" horiz-adv-x="638" d="M156 326v319h327v-319h-327z" />
<glyph unicode="&#xb8;" d="M315 -346l207 266l164 -127l-266 -219z" />
<glyph unicode="&#xb9;" horiz-adv-x="1198" d="M201 1118l360 248h246v-819h-201v655l-303 -219z" />
<glyph unicode="&#xba;" horiz-adv-x="1013" d="M82 838q0 188 80 243q78 57 342 58q299 0 377 -78q51 -53 51 -234q0 -184 -82 -237q-80 -55 -354 -55q-262 0 -338 55t-76 248zM272 834q0 -111 43 -138q41 -27 217 -26q133 0 173 30q37 31 36 140q0 104 -39 135q-39 29 -172 29q-170 0 -215 -29q-43 -29 -43 -141z" />
<glyph unicode="&#xbb;" horiz-adv-x="1206" d="M121 111l231 391l-231 397l194 117l299 -512l-299 -506zM631 111l231 391l-231 397l194 117l299 -512l-299 -506z" />
<glyph unicode="&#xbc;" horiz-adv-x="2789" d="M201 1118l360 248h246v-819h-201v655l-303 -219zM725 -4l1161 1374h174l-1161 -1374h-174zM1686 162v233l632 424h244v-508h135v-147h-135v-164h-195v162h-681zM1853 311h512v346z" />
<glyph unicode="&#xbd;" horiz-adv-x="2789" d="M201 1118l360 248h246v-819h-201v655l-303 -219zM725 -4l1161 1374h174l-1161 -1374h-174zM1700 0v168q0 139 57 194t236 68l313 23q109 8 139 26q29 20 29 84q0 78 -45 96t-238 19q-197 0 -243 -23q-49 -20 -50 -110v-35h-194v80q0 139 92 190q88 45 412 45 q348 0 415 -73q49 -55 50 -187q0 -139 -58 -196q-53 -53 -243 -68l-312 -20q-102 -8 -129 -25q-37 -23 -37 -92v-19h779v-145h-973z" />
<glyph unicode="&#xbe;" horiz-adv-x="2793" d="M104 778v53h195v-16q0 -86 41 -106t215 -21q168 0 246 4q92 6 92 94q0 66 -27 86q-29 18 -123 19h-256v139h248q80 0 113 23q31 20 31 75q0 61 -43 80q-45 16 -197 17q-221 0 -268 -13q-33 -10 -54 -41q-20 -33 -10 -57l2 -2v-22h-198q4 170 61 217q76 66 438 65 q303 0 387 -47q82 -43 82 -190q0 -141 -127 -172q82 -14 113 -54q29 -39 29 -129q0 -195 -172 -225q-57 -12 -299 -12q-266 0 -357 12q-162 27 -162 223zM729 -4l1161 1374h174l-1161 -1374h-174zM1692 162v233l632 424h244v-508h135v-147h-135v-164h-194v162h-682z M1860 311h512v346z" />
<glyph unicode="&#xbf;" horiz-adv-x="1583" d="M147 -16q0 195 76 276q66 68 338 113l74 10q78 14 102 37q25 25 25 82h270q-4 -193 -69 -252q-68 -59 -320 -92q-125 -14 -176 -56q-51 -41 -51 -125q0 -106 65 -143q70 -39 328 -39q274 0 342 37q66 35 66 182v41h272v-35q0 -254 -96 -339q-102 -92 -578 -93 q-485 0 -596 119q-72 78 -72 277zM737 664v297h322v-297h-322z" />
<glyph unicode="&#xc0;" horiz-adv-x="1964" d="M-8 0l782 1366h428l770 -1366h-344l-155 270h-975l-152 -270h-354zM598 1602l72 210l534 -206l-49 -125zM618 492h738l-371 653z" />
<glyph unicode="&#xc1;" horiz-adv-x="1964" d="M-8 0l782 1366h428l770 -1366h-344l-155 270h-975l-152 -270h-354zM618 492h738l-371 653zM776 1606l535 206l71 -210l-557 -121z" />
<glyph unicode="&#xc2;" horiz-adv-x="1964" d="M-8 0l782 1366h428l770 -1366h-344l-155 270h-975l-152 -270h-354zM530 1593l453 213l451 -213l-54 -112l-397 106l-399 -106zM618 492h738l-371 653z" />
<glyph unicode="&#xc3;" horiz-adv-x="1964" d="M-8 0l782 1366h428l770 -1366h-344l-155 270h-975l-152 -270h-354zM537 1550q78 227 249 228q82 0 271 -70q74 -27 117 -27q76 0 100 97l162 -52q-80 -229 -254 -229q-86 0 -203 51q-117 47 -174 47q-76 0 -107 -96zM618 492h738l-371 653z" />
<glyph unicode="&#xc4;" horiz-adv-x="1964" d="M-8 0l782 1366h428l770 -1366h-344l-155 270h-975l-152 -270h-354zM551 1522v200h330v-200h-330zM618 492h738l-371 653zM1083 1522v200h330v-200h-330z" />
<glyph unicode="&#xc5;" horiz-adv-x="1964" d="M-8 0l782 1366h428l770 -1366h-344l-155 270h-975l-152 -270h-354zM618 492h738l-371 653zM684 1645q0 84 82 135q82 49 219 49q295 0 295 -178q0 -184 -307 -185q-131 0 -209 50q-80 47 -80 129zM831 1645q0 -72 138 -72q164 0 164 76q0 74 -148 73q-154 1 -154 -77z " />
<glyph unicode="&#xc6;" horiz-adv-x="2942" d="M-18 0l991 1366h1843v-240h-1130v-323h1071v-215h-1071v-348h1134v-240h-1431v268h-842l-193 -268h-372zM696 485h693v643h-224z" />
<glyph unicode="&#xc7;" horiz-adv-x="1990" d="M150 707q0 287 36 407q39 123 146 182q145 82 690 82q604 0 717 -123q88 -94 90 -348h-301q0 150 -76 183q-78 35 -414 34q-397 0 -479 -43q-57 -31 -76 -110q-18 -80 -18 -301q0 -299 70 -363q70 -66 389 -65l417 8q111 10 156 57q43 47 43 154v31h305v-23 q0 -268 -78 -352q-70 -78 -202 -105q-131 -25 -465 -24q-627 0 -766 75q-115 63 -156 222q-29 109 -28 422zM797 -356l211 272l176 -129l-266 -225z" />
<glyph unicode="&#xc8;" horiz-adv-x="1771" d="M182 0v1366h1452v-240h-1140v-323h1085v-215h-1085v-348h1153v-240h-1465zM543 1602l71 210l535 -206l-49 -125z" />
<glyph unicode="&#xc9;" horiz-adv-x="1771" d="M182 0v1366h1452v-240h-1140v-323h1085v-215h-1085v-348h1153v-240h-1465zM696 1606l535 206l72 -210l-558 -121z" />
<glyph unicode="&#xca;" horiz-adv-x="1771" d="M182 0v1366h1452v-240h-1140v-323h1085v-215h-1085v-348h1153v-240h-1465zM459 1593l452 213l453 -213l-53 -112l-400 106l-397 -106z" />
<glyph unicode="&#xcb;" horiz-adv-x="1771" d="M182 0v1366h1452v-240h-1140v-323h1085v-215h-1085v-348h1153v-240h-1465zM479 1522v200h330v-200h-330zM1014 1522v200h329v-200h-329z" />
<glyph unicode="&#xcc;" horiz-adv-x="681" d="M12 1604l72 208l459 -206l-41 -125zM182 0v1366h316v-1366h-316z" />
<glyph unicode="&#xcd;" horiz-adv-x="681" d="M141 1606l457 206l74 -208l-482 -123zM184 0v1366h316v-1366h-316z" />
<glyph unicode="&#xce;" horiz-adv-x="681" d="M-20 1591l360 215l360 -215l-55 -110l-305 106l-303 -106zM182 0v1366h316v-1366h-316z" />
<glyph unicode="&#xcf;" horiz-adv-x="681" d="M8 1522v200h287v-200h-287zM184 0v1366h316v-1366h-316zM389 1522v200h285v-200h-285z" />
<glyph unicode="&#xd0;" horiz-adv-x="2105" d="M8 596v199h174v571h1135q385 0 522 -149q117 -131 117 -549t-144 -551q-129 -117 -462 -117h-1168v596h-174zM498 250h784q160 0 242 45q113 61 112 358q0 285 -65 369q-68 86 -289 86h-784v-313h491v-199h-491v-346z" />
<glyph unicode="&#xd1;" horiz-adv-x="2174" d="M182 0v1366h490l1026 -1137l-6 1137h301v-1366h-492l-1020 1130l6 -1130h-305zM672 1550q78 227 250 228q82 0 272 -70q70 -27 117 -27q72 0 98 97l162 -52q-80 -229 -254 -229q-82 0 -203 51q-117 47 -174 47q-76 0 -106 -96z" />
<glyph unicode="&#xd2;" horiz-adv-x="2121" d="M150 727q0 420 129 533q102 90 346 110q117 10 524 10q363 1 500 -26q137 -25 215 -109q82 -92 100 -289q8 -84 8 -288q0 -444 -137 -566q-109 -94 -350 -108q-131 -8 -504 -8q-508 0 -647 75q-141 76 -168 279q-16 121 -16 387zM471 682q0 -201 21 -281q18 -82 75 -110 q88 -47 533 -47q428 0 495 75q61 68 62 371q0 322 -76 377t-518 55q-438 0 -514 -57q-78 -57 -78 -383zM678 1602l74 210l532 -206l-49 -125z" />
<glyph unicode="&#xd3;" horiz-adv-x="2121" d="M150 727q0 420 129 533q102 90 346 110q117 10 524 10q363 1 500 -26q137 -25 215 -109q82 -92 100 -289q8 -84 8 -288q0 -444 -137 -566q-109 -94 -350 -108q-131 -8 -504 -8q-508 0 -647 75q-141 76 -168 279q-16 121 -16 387zM471 682q0 -201 21 -281q18 -82 75 -110 q88 -47 533 -47q428 0 495 75q61 68 62 371q0 322 -76 377t-518 55q-438 0 -514 -57q-78 -57 -78 -383zM842 1606l534 206l72 -210l-557 -121z" />
<glyph unicode="&#xd4;" horiz-adv-x="2121" d="M150 727q0 420 129 533q102 90 346 110q117 10 524 10q363 1 500 -26q137 -25 215 -109q82 -92 100 -289q8 -84 8 -288q0 -444 -137 -566q-109 -94 -350 -108q-131 -8 -504 -8q-508 0 -647 75q-141 76 -168 279q-16 121 -16 387zM471 682q0 -201 21 -281q18 -82 75 -110 q88 -47 533 -47q428 0 495 75q61 68 62 371q0 322 -76 377t-518 55q-438 0 -514 -57q-78 -57 -78 -383zM608 1593l453 213l452 -213l-55 -112l-397 106l-399 -106z" />
<glyph unicode="&#xd5;" horiz-adv-x="2121" d="M150 727q0 420 129 533q102 90 346 110q117 10 524 10q363 1 500 -26q137 -25 215 -109q82 -92 100 -289q8 -84 8 -288q0 -444 -137 -566q-109 -94 -350 -108q-131 -8 -504 -8q-508 0 -647 75q-141 76 -168 279q-16 121 -16 387zM471 682q0 -201 21 -281q18 -82 75 -110 q88 -47 533 -47q428 0 495 75q61 68 62 371q0 322 -76 377t-518 55q-438 0 -514 -57q-78 -57 -78 -383zM618 1550q78 227 248 228q84 0 273 -70q74 -27 116 -27q74 0 101 97l160 -52q-80 -229 -254 -229q-82 0 -203 51q-117 47 -172 47q-76 0 -109 -96z" />
<glyph unicode="&#xd6;" horiz-adv-x="2121" d="M150 727q0 420 129 533q102 90 346 110q117 10 524 10q363 1 500 -26q137 -25 215 -109q82 -92 100 -289q8 -84 8 -288q0 -444 -137 -566q-109 -94 -350 -108q-131 -8 -504 -8q-508 0 -647 75q-141 76 -168 279q-16 121 -16 387zM471 682q0 -201 21 -281q18 -82 75 -110 q88 -47 533 -47q428 0 495 75q61 68 62 371q0 322 -76 377t-518 55q-438 0 -514 -57q-78 -57 -78 -383zM629 1522v200h329v-200h-329zM1163 1522v200h330v-200h-330z" />
<glyph unicode="&#xd7;" horiz-adv-x="1818" d="M387 311l383 383l-367 365l140 139l366 -364l381 383l140 -140l-381 -383l364 -364l-139 -140l-365 365l-383 -383z" />
<glyph unicode="&#xd8;" horiz-adv-x="2142" d="M80 -20v204l115 72q-35 127 -35 473q0 408 123 524q94 86 254 107q154 20 602 20q362 0 499 -22q137 -23 217 -96l207 124v-204l-116 -72q37 -119 36 -428q0 -373 -73 -504q-66 -115 -234 -162q-117 -31 -551 -30q-584 0 -723 49q-66 23 -114 69zM481 680q0 -174 13 -248 l1060 653q-102 35 -483 37h-55q-406 2 -477 -73q-57 -66 -58 -369zM592 285q82 -41 516 -41q430 0 498 75q61 68 61 369q0 184 -14 250z" />
<glyph unicode="&#xd9;" horiz-adv-x="2041" d="M174 553v813h315v-715q0 -182 11 -239q16 -109 110 -142q94 -31 402 -30q324 0 401 20q117 31 135 156q4 25 6 215v735h316v-860q0 -195 -37 -291q-37 -94 -135 -149q-137 -80 -717 -80q-354 0 -498 28q-143 29 -219 113q-90 102 -90 426zM637 1602l72 210l534 -206 l-49 -125z" />
<glyph unicode="&#xda;" horiz-adv-x="2041" d="M174 553v813h315v-715q0 -182 11 -239q16 -109 110 -142q94 -31 402 -30q324 0 401 20q117 31 135 156q4 25 6 215v735h316v-860q0 -195 -37 -291q-37 -94 -135 -149q-137 -80 -717 -80q-354 0 -498 28q-143 29 -219 113q-90 102 -90 426zM803 1606l534 206l72 -210 l-557 -121z" />
<glyph unicode="&#xdb;" horiz-adv-x="2041" d="M174 553v813h315v-715q0 -182 11 -239q16 -109 110 -142q94 -31 402 -30q324 0 401 20q117 31 135 156q4 25 6 215v735h316v-860q0 -195 -37 -291q-37 -94 -135 -149q-137 -80 -717 -80q-354 0 -498 28q-143 29 -219 113q-90 102 -90 426zM569 1593l453 213l453 -213 l-56 -112l-397 106l-399 -106z" />
<glyph unicode="&#xdc;" horiz-adv-x="2041" d="M174 553v813h315v-715q0 -182 11 -239q16 -109 110 -142q94 -31 402 -30q324 0 401 20q117 31 135 156q4 25 6 215v735h316v-860q0 -195 -37 -291q-37 -94 -135 -149q-137 -80 -717 -80q-354 0 -498 28q-143 29 -219 113q-90 102 -90 426zM590 1522v200h330v-200h-330z M1124 1522v200h330v-200h-330z" />
<glyph unicode="&#xdd;" horiz-adv-x="1880" d="M0 1366h408l536 -602l533 602h401l-778 -852v-514h-316v514zM733 1606l533 206l73 -210l-557 -121z" />
<glyph unicode="&#xde;" horiz-adv-x="1886" d="M182 0v1366h316v-188h772q311 0 407 -95q100 -98 101 -344q0 -274 -105 -366q-102 -92 -411 -92h-764v-281h-316zM498 535h688q164 0 219 38q53 39 53 154q0 117 -53 158q-53 39 -211 39h-696v-389z" />
<glyph unicode="&#xdf;" horiz-adv-x="1591" d="M156 0v952q0 242 106 338q117 102 582 103q311 0 416 -62q117 -66 116 -239q0 -141 -73 -193q-51 -37 -168 -53q199 -16 264 -107q72 -92 71 -293q0 -250 -110 -356q-113 -106 -375 -106q-246 0 -346 82q-100 80 -100 276q0 18 2 31h235q2 -82 15 -105q33 -78 170 -78 t184 54q47 51 47 223q0 174 -53 229q-55 55 -226 56h-301v194h252q131 0 180 27q51 27 52 92q0 74 -60 102q-59 27 -221 27q-262 0 -326 -47q-63 -49 -63 -246v-901h-270z" />
<glyph unicode="&#xe0;" horiz-adv-x="1517" d="M115 281q0 199 110 258q109 59 471 59q205 0 283 -25t108 -100v105q0 145 -55 182q-57 37 -278 37q-207 0 -262 -19q-53 -20 -62 -96h-272q6 145 86 209q109 88 477 88q471 0 569 -109q72 -80 72 -276v-594h-270v154q-27 -100 -115 -136q-90 -37 -313 -36q-348 0 -437 51 q-113 61 -112 248zM383 295q0 -106 129 -127q49 -6 231 -6q211 0 279 28q68 27 68 113q0 78 -52 96q-74 33 -311 33q-219 0 -291 -33q-53 -23 -53 -104zM442 1243l68 184l436 -215l-39 -114z" />
<glyph unicode="&#xe1;" horiz-adv-x="1517" d="M115 281q0 199 110 258q109 59 471 59q205 0 283 -25t108 -100v105q0 145 -55 182q-57 37 -278 37q-207 0 -262 -19q-53 -20 -62 -96h-272q6 145 86 209q109 88 477 88q471 0 569 -109q72 -80 72 -276v-594h-270v154q-27 -100 -115 -136q-90 -37 -313 -36q-348 0 -437 51 q-113 61 -112 248zM383 295q0 -106 129 -127q49 -6 231 -6q211 0 279 28q68 27 68 113q0 78 -52 96q-74 33 -311 33q-219 0 -291 -33q-53 -23 -53 -104zM578 1212l438 215l65 -184l-463 -145z" />
<glyph unicode="&#xe2;" horiz-adv-x="1517" d="M115 281q0 199 110 258q109 59 471 59q205 0 283 -25t108 -100v105q0 145 -55 182q-57 37 -278 37q-207 0 -262 -19q-53 -20 -62 -96h-272q6 145 86 209q109 88 477 88q471 0 569 -109q72 -80 72 -276v-594h-270v154q-27 -100 -115 -136q-90 -37 -313 -36q-348 0 -437 51 q-113 61 -112 248zM379 1200l381 223l379 -223l-41 -104l-338 129l-338 -129zM383 295q0 -106 129 -127q49 -6 231 -6q211 0 279 28q68 27 68 113q0 78 -52 96q-74 33 -311 33q-219 0 -291 -33q-53 -23 -53 -104z" />
<glyph unicode="&#xe3;" horiz-adv-x="1517" d="M115 281q0 199 110 258q109 59 471 59q205 0 283 -25t108 -100v105q0 145 -55 182q-57 37 -278 37q-207 0 -262 -19q-53 -20 -62 -96h-272q6 145 86 209q109 88 477 88q471 0 569 -109q72 -80 72 -276v-594h-270v154q-27 -100 -115 -136q-90 -37 -313 -36q-348 0 -437 51 q-113 61 -112 248zM369 1174q43 96 88 141q61 61 141 61q61 0 184 -53q72 -33 119 -33q78 0 100 86l156 -51q-72 -205 -227 -205q-68 0 -185 51q-84 37 -129 37q-68 0 -90 -86zM383 295q0 -106 129 -127q49 -6 231 -6q211 0 279 28q68 27 68 113q0 78 -52 96q-74 33 -311 33 q-219 0 -291 -33q-53 -23 -53 -104z" />
<glyph unicode="&#xe4;" horiz-adv-x="1517" d="M115 281q0 199 110 258q109 59 471 59q205 0 283 -25t108 -100v105q0 145 -55 182q-57 37 -278 37q-207 0 -262 -19q-53 -20 -62 -96h-272q6 145 86 209q109 88 477 88q471 0 569 -109q72 -80 72 -276v-594h-270v154q-27 -100 -115 -136q-90 -37 -313 -36q-348 0 -437 51 q-113 61 -112 248zM383 295q0 -106 129 -127q49 -6 231 -6q211 0 279 28q68 27 68 113q0 78 -52 96q-74 33 -311 33q-219 0 -291 -33q-53 -23 -53 -104zM391 1139v180h283v-180h-283zM846 1139v180h282v-180h-282z" />
<glyph unicode="&#xe5;" horiz-adv-x="1517" d="M115 281q0 199 110 258q109 59 471 59q205 0 283 -25t108 -100v105q0 145 -55 182q-57 37 -278 37q-207 0 -262 -19q-53 -20 -62 -96h-272q6 145 86 209q109 88 477 88q471 0 569 -109q72 -80 72 -276v-594h-270v154q-27 -100 -115 -136q-90 -37 -313 -36q-348 0 -437 51 q-113 61 -112 248zM383 295q0 -106 129 -127q49 -6 231 -6q211 0 279 28q68 27 68 113q0 78 -52 96q-74 33 -311 33q-219 0 -291 -33q-53 -23 -53 -104zM481 1260q0 84 74 131q76 47 207 47q276 0 276 -172q0 -180 -286 -181q-125 0 -197 48q-74 47 -74 127zM614 1260 q0 -74 131 -74q160 0 160 76t-141 75q-150 1 -150 -77z" />
<glyph unicode="&#xe6;" horiz-adv-x="2471" d="M115 293q0 193 106 250q104 53 473 53q219 0 289 -21q72 -23 111 -100v90q0 164 -68 201q-57 33 -360 33q-137 0 -183 -23q-45 -20 -49 -92h-276q2 176 123 238q104 57 446 57q289 0 389 -43q90 -37 115 -135q31 98 137 139q106 39 340 39q352 0 483 -72 q156 -86 156 -413v-68h-993v-20q0 -152 69 -199q68 -47 291 -47q270 0 324 51q35 35 37 90h270q-6 -180 -147 -258q-115 -61 -478 -61q-262 0 -370 36q-106 35 -148 136q-29 -76 -102 -117q-102 -55 -404 -55q-358 0 -456 51q-125 70 -125 260zM383 299q0 -82 57 -109 q57 -29 228 -28q276 0 319 16q104 29 105 123q0 72 -62 102q-61 29 -211 29q-276 1 -356 -24t-80 -109zM1354 590h721v16q0 111 -78 154q-72 37 -285 37q-258 0 -315 -64q-43 -51 -43 -143z" />
<glyph unicode="&#xe7;" horiz-adv-x="1515" d="M121 479q0 338 164 428q129 72 487 72q360 0 488 -76q127 -76 133 -297h-277v8q6 78 -72 125q-61 35 -278 35q-256 0 -315 -69q-55 -63 -56 -226q0 -176 68 -237q57 -55 342 -56q178 0 248 39q68 37 73 140h281q-6 -223 -135 -304q-127 -80 -479 -79q-379 0 -504 69 q-168 92 -168 428zM561 -346l209 266l164 -127l-268 -219z" />
<glyph unicode="&#xe8;" horiz-adv-x="1503" d="M121 475q0 291 117 399q111 102 544 103q403 0 512 -119q92 -106 92 -366v-64h-989q0 -160 58 -213q57 -55 354 -55q170 0 235 28q66 29 74 111h266q-6 -152 -92 -223q-115 -92 -501 -92q-352 0 -467 51q-111 51 -156 149q-47 100 -47 291zM397 588h721q0 74 -24 121 q-23 43 -54 57q-80 35 -239 35q-254 0 -324 -37q-80 -45 -80 -164v-12zM444 1243l68 184l436 -215l-39 -114z" />
<glyph unicode="&#xe9;" horiz-adv-x="1503" d="M121 475q0 291 117 399q111 102 544 103q403 0 512 -119q92 -106 92 -366v-64h-989q0 -160 58 -213q57 -55 354 -55q170 0 235 28q66 29 74 111h266q-6 -152 -92 -223q-115 -92 -501 -92q-352 0 -467 51q-111 51 -156 149q-47 100 -47 291zM397 588h721q0 74 -24 121 q-23 43 -54 57q-80 35 -239 35q-254 0 -324 -37q-80 -45 -80 -164v-12zM582 1212l438 215l65 -184l-462 -145z" />
<glyph unicode="&#xea;" horiz-adv-x="1503" d="M121 475q0 291 117 399q111 102 544 103q403 0 512 -119q92 -106 92 -366v-64h-989q0 -160 58 -213q57 -55 354 -55q170 0 235 28q66 29 74 111h266q-6 -152 -92 -223q-115 -92 -501 -92q-352 0 -467 51q-111 51 -156 149q-47 100 -47 291zM383 1200l379 223l381 -223 l-43 -104l-338 129l-338 -129zM397 588h721q0 74 -24 121q-23 43 -54 57q-80 35 -239 35q-254 0 -324 -37q-80 -45 -80 -164v-12z" />
<glyph unicode="&#xeb;" horiz-adv-x="1503" d="M121 475q0 291 117 399q111 102 544 103q403 0 512 -119q92 -106 92 -366v-64h-989q0 -160 58 -213q57 -55 354 -55q170 0 235 28q66 29 74 111h266q-6 -152 -92 -223q-115 -92 -501 -92q-352 0 -467 51q-111 51 -156 149q-47 100 -47 291zM395 1139v180h283v-180h-283z M397 588h721q0 74 -24 121q-23 43 -54 57q-80 35 -239 35q-254 0 -324 -37q-80 -45 -80 -164v-12zM850 1139v180h283v-180h-283z" />
<glyph unicode="&#xec;" horiz-adv-x="581" d="M14 1245l68 182l385 -215l-43 -114zM156 0v961h270v-961h-270z" />
<glyph unicode="&#xed;" horiz-adv-x="581" d="M119 1212l383 215l69 -182l-411 -147zM156 0v961h270v-961h-270z" />
<glyph unicode="&#xee;" horiz-adv-x="581" d="M-18 1200l309 223l309 -223l-45 -104l-264 129l-264 -129zM156 0v961h270v-961h-270z" />
<glyph unicode="&#xef;" horiz-adv-x="581" d="M0 1139v180h244v-180h-244zM156 0v961h270v-961h-270zM340 1139v180h244v-180h-244z" />
<glyph unicode="&#xf0;" horiz-adv-x="1562" d="M121 483q0 299 102 389q123 104 471 105q190 0 328 -43q-125 150 -178 201l-139 -76l-91 112l131 74l-167 178l247 37q57 -49 127 -117l144 78l98 -110l-137 -80l45 -49q188 -201 260 -324q82 -141 82 -379q0 -317 -123 -407q-121 -90 -553 -90q-412 0 -528 92 q-119 90 -119 409zM395 477q0 -186 66 -237q63 -53 293 -54q250 0 313 29q104 45 104 242q0 205 -75 260q-78 57 -353 57q-216 0 -282 -55t-66 -242z" />
<glyph unicode="&#xf1;" horiz-adv-x="1556" d="M156 0v961h264v-209q45 137 141 186q96 47 326 47q319 0 430 -123q84 -94 84 -313v-549h-271v537q0 137 -65 182q-66 47 -260 47q-211 0 -295 -61t-84 -220v-485h-270zM377 1174q45 100 88 141q61 61 141 61q63 0 182 -53q74 -33 119 -33q78 0 101 86l155 -51 q-72 -205 -225 -205q-70 0 -186 51q-84 37 -129 37q-68 0 -91 -86z" />
<glyph unicode="&#xf2;" horiz-adv-x="1562" d="M121 483q0 299 102 389q55 47 146 72q135 35 405 35q455 0 576 -113q94 -88 94 -403q0 -274 -86 -361q-57 -57 -144 -82q-131 -39 -450 -38q-410 0 -526 92q-117 90 -117 409zM395 477q0 -186 66 -237q63 -53 291 -54q266 0 331 37q86 49 86 248q0 195 -63 248 q-61 55 -285 55q-313 1 -372 -69q-53 -59 -54 -228zM467 1243l65 184l439 -215l-41 -114z" />
<glyph unicode="&#xf3;" horiz-adv-x="1562" d="M121 483q0 299 102 389q55 47 146 72q135 35 405 35q455 0 576 -113q94 -88 94 -403q0 -274 -86 -361q-57 -57 -144 -82q-131 -39 -450 -38q-410 0 -526 92q-117 90 -117 409zM395 477q0 -186 66 -237q63 -53 291 -54q266 0 331 37q86 49 86 248q0 195 -63 248 q-61 55 -285 55q-313 1 -372 -69q-53 -59 -54 -228zM604 1212l436 215l68 -184l-465 -145z" />
<glyph unicode="&#xf4;" horiz-adv-x="1562" d="M121 483q0 299 102 389q55 47 146 72q135 35 405 35q455 0 576 -113q94 -88 94 -403q0 -274 -86 -361q-57 -57 -144 -82q-131 -39 -450 -38q-410 0 -526 92q-117 90 -117 409zM395 477q0 -186 66 -237q63 -53 291 -54q266 0 331 37q86 49 86 248q0 195 -63 248 q-61 55 -285 55q-313 1 -372 -69q-53 -59 -54 -228zM401 1200l381 223l379 -223l-41 -104l-338 129l-338 -129z" />
<glyph unicode="&#xf5;" horiz-adv-x="1562" d="M121 483q0 299 102 389q55 47 146 72q135 35 405 35q455 0 576 -113q94 -88 94 -403q0 -274 -86 -361q-57 -57 -144 -82q-131 -39 -450 -38q-410 0 -526 92q-117 90 -117 409zM395 477q0 -186 66 -237q63 -53 291 -54q266 0 331 37q86 49 86 248q0 195 -63 248 q-61 55 -285 55q-313 1 -372 -69q-53 -59 -54 -228zM395 1174q45 100 88 141q61 61 142 61q61 0 184 -53q72 -33 117 -33q78 0 100 86l156 -51q-68 -205 -226 -205q-70 0 -186 51q-84 37 -129 37q-66 0 -90 -86z" />
<glyph unicode="&#xf6;" horiz-adv-x="1562" d="M121 483q0 299 102 389q55 47 146 72q135 35 405 35q455 0 576 -113q94 -88 94 -403q0 -274 -86 -361q-57 -57 -144 -82q-131 -39 -450 -38q-410 0 -526 92q-117 90 -117 409zM395 477q0 -186 66 -237q63 -53 291 -54q266 0 331 37q86 49 86 248q0 195 -63 248 q-61 55 -285 55q-313 1 -372 -69q-53 -59 -54 -228zM414 1139v180h282v-180h-282zM868 1139v180h283v-180h-283z" />
<glyph unicode="&#xf7;" horiz-adv-x="1818" d="M266 604v195h1286v-195h-1286zM762 180v287h293v-287h-293zM762 934v287h293v-287h-293z" />
<glyph unicode="&#xf8;" horiz-adv-x="1585" d="M72 -27v152l94 57q-35 125 -35 289q0 326 117 418q119 90 538 90q414 0 557 -100l173 104v-152l-97 -59q33 -111 33 -268q0 -332 -109 -418q-127 -104 -532 -104q-449 0 -567 94zM403 465q0 -90 15 -135l674 405q-84 39 -295 39q-242 0 -308 -37q-86 -49 -86 -272z M494 223q90 -37 329 -37q223 0 289 56q66 55 66 241q0 80 -13 144z" />
<glyph unicode="&#xf9;" horiz-adv-x="1556" d="M156 412v549h270v-537q0 -139 66 -184q63 -45 260 -45q211 0 295 61t83 219v486h271v-961h-264v209q-45 -137 -142 -186q-96 -47 -325 -48q-319 0 -430 123q-84 94 -84 314zM459 1243l65 184l439 -215l-41 -114z" />
<glyph unicode="&#xfa;" horiz-adv-x="1556" d="M156 412v549h270v-537q0 -139 66 -184q63 -45 260 -45q211 0 295 61t83 219v486h271v-961h-264v209q-45 -137 -142 -186q-96 -47 -325 -48q-319 0 -430 123q-84 94 -84 314zM600 1212l436 215l68 -184l-465 -145z" />
<glyph unicode="&#xfb;" horiz-adv-x="1556" d="M156 412v549h270v-537q0 -139 66 -184q63 -45 260 -45q211 0 295 61t83 219v486h271v-961h-264v209q-45 -137 -142 -186q-96 -47 -325 -48q-319 0 -430 123q-84 94 -84 314zM399 1200l379 223l381 -223l-43 -104l-338 129l-338 -129z" />
<glyph unicode="&#xfc;" horiz-adv-x="1556" d="M156 412v549h270v-537q0 -139 66 -184q63 -45 260 -45q211 0 295 61t83 219v486h271v-961h-264v209q-45 -137 -142 -186q-96 -47 -325 -48q-319 0 -430 123q-84 94 -84 314zM410 1139v180h282v-180h-282zM864 1139v180h283v-180h-283z" />
<glyph unicode="&#xfd;" horiz-adv-x="1345" d="M14 961h297l363 -775l358 775h297l-536 -1111q-76 -162 -131 -212q-88 -86 -297 -87q-41 0 -113 7v190q20 -2 43 -2q115 0 166 35q51 33 102 143l37 76h-113zM496 1212l436 215l67 -184l-464 -145z" />
<glyph unicode="&#xfe;" horiz-adv-x="1599" d="M156 -414v1784h270v-588q35 117 127 158q90 39 315 39q412 0 527 -123q86 -94 86 -375q0 -303 -115 -401t-469 -98q-231 0 -336 41q-104 39 -135 141v-578h-270zM426 469q0 -195 84 -238q59 -33 135 -32l225 -9q211 0 271 56q61 53 61 243q0 168 -63 230q-41 37 -127 47 l-238 8q-225 0 -287 -53q-61 -55 -61 -252z" />
<glyph unicode="&#xff;" horiz-adv-x="1345" d="M14 961h297l363 -775l358 775h297l-536 -1111q-76 -162 -131 -212q-88 -86 -297 -87q-41 0 -113 7v190q20 -2 43 -2q115 0 166 35q51 33 102 143l37 76h-113zM303 1139v180h283v-180h-283zM758 1139v180h282v-180h-282z" />
<glyph unicode="&#x152;" horiz-adv-x="3178" d="M150 662q0 289 26 409q27 121 105 189q82 74 206 94q123 18 500 18q420 0 522 -55q86 -49 117 -125v174h1423v-240h-1128v-323h1069v-215h-1069v-348h1133v-240h-1428v162q-45 -88 -135 -123q-90 -37 -272 -43q-37 -2 -295 -2q-426 0 -559 61q-131 63 -172 183 q-43 119 -43 424zM459 709q0 -225 18 -303q18 -82 76 -115q78 -43 489 -51q68 -2 129 -2q326 0 398 79q57 66 57 355q0 322 -74 385q-70 61 -497 61q-459 0 -525 -59q-72 -61 -71 -350z" />
<glyph unicode="&#x153;" horiz-adv-x="2537" d="M121 502q0 281 106 370q121 106 525 107q283 0 391 -33q111 -35 151 -133q41 96 154 131t373 35q252 0 368 -39q117 -37 176 -137q55 -96 56 -307v-70h-994q0 -168 68 -217q68 -51 291 -51q219 0 285 24q68 25 79 113h269q0 -170 -140 -248q-117 -66 -446 -65 q-279 0 -387 34q-109 33 -152 134q-43 -96 -139 -132q-96 -37 -311 -36q-442 0 -561 65q-94 53 -127 148q-35 96 -35 307zM389 483q0 -186 64 -243q41 -37 133 -47q49 -8 241 -9q217 0 277 52q66 55 65 231q0 193 -63 250q-66 57 -281 57q-326 1 -383 -67q-53 -61 -53 -224z M1425 586h723q0 133 -67 174q-70 41 -287 41q-223 0 -295 -43q-74 -43 -74 -172z" />
<glyph unicode="&#x178;" horiz-adv-x="1880" d="M0 1366h408l536 -602l533 602h401l-778 -852v-514h-316v514zM508 1522v200h330v-200h-330zM1042 1522v200h330v-200h-330z" />
<glyph unicode="&#x2c6;" d="M133 1200l379 223l381 -223l-43 -104l-338 129l-338 -129z" />
<glyph unicode="&#x2dc;" d="M119 1174q45 100 88 141q61 61 141 61q61 0 184 -53q72 -33 117 -33q78 0 101 86l155 -51q-68 -205 -225 -205q-70 0 -186 51q-84 37 -129 37q-66 0 -91 -86z" />
<glyph unicode="&#x2000;" horiz-adv-x="914" />
<glyph unicode="&#x2001;" horiz-adv-x="1829" />
<glyph unicode="&#x2002;" horiz-adv-x="914" />
<glyph unicode="&#x2003;" horiz-adv-x="1829" />
<glyph unicode="&#x2004;" horiz-adv-x="609" />
<glyph unicode="&#x2005;" horiz-adv-x="457" />
<glyph unicode="&#x2006;" horiz-adv-x="304" />
<glyph unicode="&#x2007;" horiz-adv-x="304" />
<glyph unicode="&#x2008;" horiz-adv-x="228" />
<glyph unicode="&#x2009;" horiz-adv-x="365" />
<glyph unicode="&#x200a;" horiz-adv-x="101" />
<glyph unicode="&#x2010;" horiz-adv-x="698" d="M0 379v264h698v-264h-698z" />
<glyph unicode="&#x2011;" horiz-adv-x="698" d="M0 379v264h698v-264h-698z" />
<glyph unicode="&#x2012;" horiz-adv-x="698" d="M0 379v264h698v-264h-698z" />
<glyph unicode="&#x2013;" horiz-adv-x="1910" d="M246 383v258h1417v-258h-1417z" />
<glyph unicode="&#x2014;" horiz-adv-x="2093" d="M0 385v254h2093v-254h-2093z" />
<glyph unicode="&#x2018;" horiz-adv-x="618" d="M143 752v301q0 190 66 256q66 63 260 63h41v-170q-68 0 -98 -18q-49 -33 -43 -109q0 -8 2 -12h94v-311h-322z" />
<glyph unicode="&#x2019;" horiz-adv-x="624" d="M109 752v168q82 0 110 28q29 29 29 111h-94v311h321v-301q0 -188 -65 -254q-68 -66 -260 -65q-23 0 -41 2z" />
<glyph unicode="&#x201a;" horiz-adv-x="624" d="M109 -139q82 0 110 30q31 29 29 109h-94v311h321v-301q0 -190 -65 -254q-66 -66 -260 -65q-23 0 -41 2v168z" />
<glyph unicode="&#x201c;" horiz-adv-x="1112" d="M143 752v301q0 190 66 256q66 63 260 63h41v-170q-68 0 -98 -18q-49 -33 -43 -109q0 -8 2 -12h94v-311h-322zM637 745v302q0 227 106 282q72 37 261 37v-170q-82 0 -111 -29t-29 -110h94v-312h-321z" />
<glyph unicode="&#x201d;" horiz-adv-x="1118" d="M109 748v167q82 0 110 29q29 29 29 111h-94v311h321v-301q0 -188 -65 -254q-68 -66 -260 -66q-23 0 -41 3zM604 748v167q66 2 96 19q49 33 43 108q0 8 -2 13h-94v311h322v-301q0 -188 -66 -254q-68 -66 -260 -66q-23 0 -39 3z" />
<glyph unicode="&#x201e;" horiz-adv-x="1118" d="M109 -139q82 0 110 30q31 29 29 109h-94v311h321v-301q0 -190 -65 -254q-66 -66 -260 -65q-23 0 -41 2v168zM604 -139q70 2 96 18q49 33 43 109q0 8 -2 12h-94v311h322v-301q0 -188 -66 -254q-68 -66 -260 -65q-23 0 -39 2v168z" />
<glyph unicode="&#x2022;" horiz-adv-x="1366" d="M401 692q0 119 84 203q84 82 205 82q113 0 197 -84q82 -84 82 -199q0 -119 -82 -200q-84 -84 -201 -84q-119 0 -201 84q-84 82 -84 198z" />
<glyph unicode="&#x2026;" horiz-adv-x="1980" d="M166 0v319h328v-319h-328zM825 0v319h328v-319h-328zM1487 0v319h328v-319h-328z" />
<glyph unicode="&#x202f;" horiz-adv-x="365" />
<glyph unicode="&#x2039;" horiz-adv-x="696" d="M82 504l299 512l194 -117l-231 -397l231 -391l-194 -113z" />
<glyph unicode="&#x203a;" horiz-adv-x="696" d="M121 111l231 391l-231 397l194 117l299 -512l-299 -506z" />
<glyph unicode="&#x205f;" horiz-adv-x="457" />
<glyph unicode="&#x20ac;" horiz-adv-x="1910" d="M33 457l76 178h100v92h-176l76 178h104q14 256 129 357q100 88 336 106q109 10 399 10q582 0 744 -55l-111 -262q-88 63 -450 63q-496 0 -582 -26q-109 -35 -133 -129q-4 -10 -13 -64h1002l-74 -178h-936v-92h897l-75 -178h-807q12 -88 65 -135q90 -78 563 -78 q426 0 519 49v-285q-156 -20 -539 -20q-547 0 -672 43q-131 41 -190 139q-59 96 -70 287h-182z" />
<glyph unicode="&#x2122;" horiz-adv-x="2635" d="M33 1208v158h983v-158h-389v-622h-205v622h-389zM1128 586v780h316l377 -561l377 561h311v-780h-201l6 614l-418 -614h-157l-414 614l4 -614h-201z" />
<glyph unicode="&#x25fc;" horiz-adv-x="1361" d="M0 0v1362h1362v-1362h-1362z" />
</font>
</defs>
</svg>
